<?xml version="1.0" encoding="UTF-8" standalone="no"?>
<!-- Created with Inkscape (http://www.inkscape.org/) -->

<svg
   width="210mm"
   height="297mm"
   viewBox="0 0 210 297"
   version="1.1"
   id="svg5"
   sodipodi:docname="blue-signup.svg"
   inkscape:version="1.1.2 (b8e25be8, 2022-02-05)"
   xmlns:inkscape="http://www.inkscape.org/namespaces/inkscape"
   xmlns:sodipodi="http://sodipodi.sourceforge.net/DTD/sodipodi-0.dtd"
   xmlns="http://www.w3.org/2000/svg"
   xmlns:svg="http://www.w3.org/2000/svg">
  <sodipodi:namedview
     id="namedview7"
     pagecolor="#ffffff"
     bordercolor="#999999"
     borderopacity="1"
     inkscape:pageshadow="0"
     inkscape:pageopacity="0"
     inkscape:pagecheckerboard="true"
     inkscape:document-units="mm"
     showgrid="false"
     inkscape:zoom="0.43206369"
     inkscape:cx="244.17696"
     inkscape:cy="543.90129"
     inkscape:window-width="1280"
     inkscape:window-height="800"
     inkscape:window-x="0"
     inkscape:window-y="147"
     inkscape:window-maximized="0"
     inkscape:current-layer="layer1" />
  <defs
     id="defs2" />
  <g
     inkscape:label="Layer 1"
     inkscape:groupmode="layer"
     id="layer1">
    <path
       style="fill:#41c6f6;fill-opacity:1;stroke:none;stroke-width:0.264583px;stroke-linecap:butt;stroke-linejoin:miter;stroke-opacity:1"
       d="M -11.02268,130.88791 C 1.9088085,103.39826 14.390592,92.631866 34.934446,74.584205 54.532238,58.712974 78.010127,50.67236 95.529896,51.2797 l 48.377314,-0.61237 c 0,0 25.96851,-6.662167 35.51754,-18.983491 L 202.08247,8.4137343 222.29072,-16.693474 221.67835,147.42194 v 0 c 0,0 -56.33815,9.79794 -84.50722,25.10722 -28.16907,15.30928 -56.338141,29.3938 -66.13608,38.57937 -5.02337,4.70941 -16.71634,11.12297 -23.795488,20.02646 -6.728526,8.46252 -13.10228,17.51478 -19.07049,24.67663 -12.247437,14.6969 -10.410309,18.98351 -10.410309,18.98351 l -30.006186,0.61238 z"
       id="path1847"
       sodipodi:nodetypes="ccccsccccssssccc" />
  </g>
</svg>
