<?xml version="1.0" encoding="UTF-8" standalone="no"?>
<!-- Created with Inkscape (http://www.inkscape.org/) -->

<svg
   width="210mm"
   height="297mm"
   viewBox="0 0 210 297"
   version="1.1"
   id="svg5"
   inkscape:version="1.1.2 (b8e25be8, 2022-02-05)"
   sodipodi:docname="dark.svg"
   xmlns:inkscape="http://www.inkscape.org/namespaces/inkscape"
   xmlns:sodipodi="http://sodipodi.sourceforge.net/DTD/sodipodi-0.dtd"
   xmlns="http://www.w3.org/2000/svg"
   xmlns:svg="http://www.w3.org/2000/svg">
  <sodipodi:namedview
     id="namedview7"
     pagecolor="#ffffff"
     bordercolor="#999999"
     borderopacity="1"
     inkscape:pageshadow="0"
     inkscape:pageopacity="0"
     inkscape:pagecheckerboard="true"
     inkscape:document-units="mm"
     showgrid="false"
     inkscape:zoom="0.67155146"
     inkscape:cx="234.53154"
     inkscape:cy="379.71774"
     inkscape:window-width="1280"
     inkscape:window-height="800"
     inkscape:window-x="0"
     inkscape:window-y="147"
     inkscape:window-maximized="0"
     inkscape:current-layer="layer1" />
  <defs
     id="defs2">
    <inkscape:path-effect
       effect="bspline"
       id="path-effect863"
       is_visible="true"
       lpeversion="1"
       weight="33.333333"
       steps="2"
       helper_size="0"
       apply_no_weight="true"
       apply_with_weight="true"
       only_selected="false" />
  </defs>
  <g
     inkscape:label="Layer 1"
     inkscape:groupmode="layer"
     id="layer1">
    <path
       style="fill:#42424e;stroke:none;stroke-width:0.264583px;stroke-linecap:butt;stroke-linejoin:miter;stroke-opacity:1;fill-opacity:1"
       d="M -0.19689985,76.302353 C 3.5460821,75.383024 11.031857,73.544412 14.840314,68.291303 18.648772,63.038194 18.780099,54.370627 22.260399,46.687659 25.7407,39.004692 32.569692,32.307027 42.222616,27.316455 51.875541,22.325883 64.351584,19.042714 72.493931,14.446183 80.636279,9.8496531 84.444754,3.9399487 91.208457,0.59099804 97.97216,-2.7579526 107.69035,-3.5459138 113.07485,-3.2830847 c 5.38451,0.2628292 6.43513,1.576094 5.58132,6.3039667 -0.85382,4.7278727 -3.61168,12.870132 -6.43529,21.209633 -2.82361,8.339501 -5.7128,16.875743 -13.001585,22.916824 -7.288787,6.041082 -18.976868,9.586905 -25.018113,18.386269 -6.041244,8.799364 -6.435224,22.851329 -8.011225,32.175672 -1.576001,9.32434 -4.333864,13.92078 -10.243618,16.15334 -5.909754,2.23256 -14.971302,2.10123 -25.609078,-0.26268 C 19.699485,111.23602 7.4860938,106.63959 1.5104458,100.20443 -4.4652021,93.769276 -4.2025486,85.495689 -3.9398818,77.221682 c 0,0 0,0 0,0 0,0 0,0 0,0 0,0 0,0 3.74298195,-0.919329 z"
       id="path861"
       inkscape:path-effect="#path-effect863"
       inkscape:original-d="M -3.9398818,77.221682 C 3.546158,75.383333 11.031933,73.544723 18.517444,71.705847 c 0.131597,-8.667649 0.262923,-17.335216 0.393988,-26.00322 6.82953,-6.697668 13.658522,-13.395333 20.487386,-20.093396 12.476805,-3.283036 24.952848,-6.566205 37.428876,-9.849704 3.808891,-5.9096765 7.617367,-11.8193806 11.425655,-17.7294678 9.718834,-0.7877276 19.437021,-1.575688 29.155121,-2.3639291 1.05093,1.3135848 2.10154,2.6268524 3.15191,3.93988172 -2.75771,8.14284968 -5.51557,16.28510918 -8.27375,24.42726618 -2.88904,8.536845 -5.77823,17.073087 -8.66774,25.60923 -11.688285,3.546232 -23.376367,7.092053 -35.06495,10.637681 -0.393729,14.052791 -0.787709,28.104756 -1.181962,42.156731 -2.75771,4.59689 -5.51557,9.19333 -8.273754,13.78959 -9.061643,-0.13107 -18.123191,-0.26239 -27.185183,-0.39399 -12.213612,-4.59635 -24.4270012,-9.19279 -36.640899,-13.78958 0.2629286,-8.273655 0.525582,-16.547242 0.7879762,-24.821258 0,0 2.646e-4,2.65e-4 0,0 0,0 2.646e-4,2.65e-4 0,0 0,0 2.646e-4,2.65e-4 0,0 z" />
  </g>
</svg>
